Coordinates
version=1
nRows=27
nColumns=12
inDegrees=yes

Units are S.I. units (second, meters, Newtons, ...)
Angles are in degrees

endheader
time	SC_y	SC_z	SC_x	AC_y	AC_z	AC_x	GH_y	GH_z	GH_yy	EL_x	PS_y
       0.0              -26.57          1.052          47.13          62.97         -1.745          3.091          80.76          3.567         -127.3          40.97          85.35
   0.02328              -26.57          1.054          47.14          62.97         -1.747          3.091          80.76          3.568         -127.3          40.97          85.34
   0.04656              -26.57          1.056          47.14          62.97          -1.75           3.09          80.77           3.57         -127.3          40.98          85.33
   0.06985              -26.57          1.059          47.15          62.97         -1.753           3.09          80.77          3.572         -127.3          40.98          85.32
   0.09313              -26.57          1.061          47.15          62.97         -1.755           3.09          80.78          3.574         -127.3          40.99          85.31
    0.1164              -26.56          1.064          47.15          62.96         -1.758          3.089          80.78          3.577         -127.3          40.99           85.3
    0.1397              -26.56          1.067          47.16          62.96         -1.761          3.089          80.79          3.579         -127.3           41.0          85.29
     0.163              -26.56           1.07          47.16          62.96         -1.765          3.088           80.8          3.582         -127.3          41.01          85.28
    0.1863              -26.56          1.074          47.17          62.96         -1.768          3.088           80.8          3.585         -127.3          41.01          85.26
    0.2095              -26.56          1.078          47.17          62.95         -1.772          3.087          80.81          3.588         -127.3          41.02          85.25
    0.2328              -26.56          1.082          47.18          62.95         -1.776          3.086          80.82          3.591         -127.3          41.03          85.24
    0.2561              -26.56          1.086          47.19          62.95         -1.781          3.086          80.83          3.594         -127.3          41.04          85.22
    0.2794              -26.56           1.09          47.19          62.95         -1.786          3.085          80.84          3.598         -127.3          41.05           85.2
    0.3027              -26.55          1.095           47.2          62.94         -1.791          3.084          80.85          3.602         -127.3          41.06          85.18
     0.326              -26.55          1.101          47.21          62.94         -1.796          3.083          80.86          3.607         -127.3          41.07          85.16
    0.3492              -26.55          1.107          47.22          62.94         -1.802          3.083          80.88          3.611         -127.3          41.08          85.14
    0.3725              -26.55          1.113          47.23          62.93         -1.809          3.082          80.89          3.617         -127.3          41.09          85.12
    0.3958              -26.55           1.12          47.24          62.93         -1.816          3.081           80.9          3.622         -127.3          41.11          85.09
    0.4191              -26.54          1.128          47.25          62.92         -1.824          3.079          80.92          3.629         -127.3          41.12          85.06
    0.4424              -26.54          1.136          47.27          62.92         -1.833          3.078          80.94          3.635         -127.3          41.14          85.03
    0.4656              -26.54          1.145          47.28          62.91         -1.842          3.077          80.96          3.643         -127.3          41.16           85.0
    0.4889              -26.54          1.155          47.29          62.91         -1.853          3.075          80.98          3.651         -127.3          41.18          84.96
    0.5122              -26.53          1.166          47.31           62.9         -1.864          3.073           81.0           3.66         -127.3           41.2          84.92
    0.5355              -26.53          1.178          47.33          62.89         -1.877          3.072          81.03           3.67         -127.3          41.22          84.87
    0.5588              -26.52          1.192          47.35          62.88         -1.891          3.069          81.06          3.681         -127.3          41.25          84.82
    0.5821              -26.52          1.207          47.38          62.87         -1.907          3.067          81.09          3.693         -127.3          41.28          84.77
    0.6053              -26.51          1.224           47.4          62.86         -1.925          3.064          81.13          3.707         -127.3          41.32           84.7
